<?xml version="1.0" encoding="UTF-8" standalone="no"?>
<!DOCTYPE svg PUBLIC "-//W3C//DTD SVG 1.1//EN"
 "http://www.w3.org/Graphics/SVG/1.1/DTD/svg11.dtd">
<!-- Generated by graphviz version 2.43.0 (0)
 -->
<!-- Title: snakemake_dag Pages: 1 -->
<svg width="302pt" height="332pt"
 viewBox="0.00 0.00 302.00 332.00" xmlns="http://www.w3.org/2000/svg" xmlns:xlink="http://www.w3.org/1999/xlink">
<g id="graph0" class="graph" transform="scale(1 1) rotate(0) translate(4 328)">
<title>snakemake_dag</title>
<polygon fill="white" stroke="transparent" points="-4,4 -4,-328 298,-328 298,4 -4,4"/>
<!-- 0 -->
<g id="node1" class="node">
<title>0</title>
<path fill="none" stroke="#d85656" stroke-width="2" stroke-dasharray="5,2" d="M162,-36C162,-36 132,-36 132,-36 126,-36 120,-30 120,-24 120,-24 120,-12 120,-12 120,-6 126,0 132,0 132,0 162,0 162,0 168,0 174,-6 174,-12 174,-12 174,-24 174,-24 174,-30 168,-36 162,-36"/>
<text text-anchor="middle" x="147" y="-15.5" font-family="sans" font-size="10.00">all</text>
</g>
<!-- 1 -->
<g id="node2" class="node">
<title>1</title>
<path fill="none" stroke="#56d8c9" stroke-width="2" stroke-dasharray="5,2" d="M162,-108C162,-108 132,-108 132,-108 126,-108 120,-102 120,-96 120,-96 120,-84 120,-84 120,-78 126,-72 132,-72 132,-72 162,-72 162,-72 168,-72 174,-78 174,-84 174,-84 174,-96 174,-96 174,-102 168,-108 162,-108"/>
<text text-anchor="middle" x="147" y="-87.5" font-family="sans" font-size="10.00">report</text>
</g>
<!-- 1&#45;&gt;0 -->
<g id="edge1" class="edge">
<title>1&#45;&gt;0</title>
<path fill="none" stroke="grey" stroke-width="2" d="M147,-71.7C147,-63.98 147,-54.71 147,-46.11"/>
<polygon fill="grey" stroke="grey" stroke-width="2" points="150.5,-46.1 147,-36.1 143.5,-46.1 150.5,-46.1"/>
</g>
<!-- 2 -->
<g id="node3" class="node">
<title>2</title>
<path fill="none" stroke="#56a2d8" stroke-width="2" stroke-dasharray="5,2" d="M174,-180C174,-180 120,-180 120,-180 114,-180 108,-174 108,-168 108,-168 108,-156 108,-156 108,-150 114,-144 120,-144 120,-144 174,-144 174,-144 180,-144 186,-150 186,-156 186,-156 186,-168 186,-168 186,-174 180,-180 174,-180"/>
<text text-anchor="middle" x="147" y="-159.5" font-family="sans" font-size="10.00">bcftools_call</text>
</g>
<!-- 2&#45;&gt;1 -->
<g id="edge2" class="edge">
<title>2&#45;&gt;1</title>
<path fill="none" stroke="grey" stroke-width="2" d="M147,-143.7C147,-135.98 147,-126.71 147,-118.11"/>
<polygon fill="grey" stroke="grey" stroke-width="2" points="150.5,-118.1 147,-108.1 143.5,-118.1 150.5,-118.1"/>
</g>
<!-- 3 -->
<g id="node4" class="node">
<title>3</title>
<path fill="none" stroke="#d8a456" stroke-width="2" stroke-dasharray="5,2" d="M74,-252C74,-252 12,-252 12,-252 6,-252 0,-246 0,-240 0,-240 0,-228 0,-228 0,-222 6,-216 12,-216 12,-216 74,-216 74,-216 80,-216 86,-222 86,-228 86,-228 86,-240 86,-240 86,-246 80,-252 74,-252"/>
<text text-anchor="middle" x="43" y="-231.5" font-family="sans" font-size="10.00">samtools_sort</text>
</g>
<!-- 3&#45;&gt;2 -->
<g id="edge3" class="edge">
<title>3&#45;&gt;2</title>
<path fill="none" stroke="grey" stroke-width="2" d="M68.44,-215.88C81.79,-206.89 98.32,-195.76 112.78,-186.03"/>
<polygon fill="grey" stroke="grey" stroke-width="2" points="115.12,-188.68 121.46,-180.19 111.21,-182.87 115.12,-188.68"/>
</g>
<!-- 4 -->
<g id="node5" class="node">
<title>4</title>
<path fill="none" stroke="#c6d856" stroke-width="2" stroke-dasharray="5,2" d="M63.5,-324C63.5,-324 22.5,-324 22.5,-324 16.5,-324 10.5,-318 10.5,-312 10.5,-312 10.5,-300 10.5,-300 10.5,-294 16.5,-288 22.5,-288 22.5,-288 63.5,-288 63.5,-288 69.5,-288 75.5,-294 75.5,-300 75.5,-300 75.5,-312 75.5,-312 75.5,-318 69.5,-324 63.5,-324"/>
<text text-anchor="middle" x="43" y="-309" font-family="sans" font-size="10.00">bwa_map</text>
<text text-anchor="middle" x="43" y="-298" font-family="sans" font-size="10.00">sample: A</text>
</g>
<!-- 4&#45;&gt;3 -->
<g id="edge6" class="edge">
<title>4&#45;&gt;3</title>
<path fill="none" stroke="grey" stroke-width="2" d="M43,-287.7C43,-279.98 43,-270.71 43,-262.11"/>
<polygon fill="grey" stroke="grey" stroke-width="2" points="46.5,-262.1 43,-252.1 39.5,-262.1 46.5,-262.1"/>
</g>
<!-- 5 -->
<g id="node6" class="node">
<title>5</title>
<path fill="none" stroke="#d8a456" stroke-width="2" stroke-dasharray="5,2" d="M178,-252C178,-252 116,-252 116,-252 110,-252 104,-246 104,-240 104,-240 104,-228 104,-228 104,-222 110,-216 116,-216 116,-216 178,-216 178,-216 184,-216 190,-222 190,-228 190,-228 190,-240 190,-240 190,-246 184,-252 178,-252"/>
<text text-anchor="middle" x="147" y="-231.5" font-family="sans" font-size="10.00">samtools_sort</text>
</g>
<!-- 5&#45;&gt;2 -->
<g id="edge4" class="edge">
<title>5&#45;&gt;2</title>
<path fill="none" stroke="grey" stroke-width="2" d="M147,-215.7C147,-207.98 147,-198.71 147,-190.11"/>
<polygon fill="grey" stroke="grey" stroke-width="2" points="150.5,-190.1 147,-180.1 143.5,-190.1 150.5,-190.1"/>
</g>
<!-- 6 -->
<g id="node7" class="node">
<title>6</title>
<path fill="none" stroke="#c6d856" stroke-width="2" stroke-dasharray="5,2" d="M167.5,-324C167.5,-324 126.5,-324 126.5,-324 120.5,-324 114.5,-318 114.5,-312 114.5,-312 114.5,-300 114.5,-300 114.5,-294 120.5,-288 126.5,-288 126.5,-288 167.5,-288 167.5,-288 173.5,-288 179.5,-294 179.5,-300 179.5,-300 179.5,-312 179.5,-312 179.5,-318 173.5,-324 167.5,-324"/>
<text text-anchor="middle" x="147" y="-309" font-family="sans" font-size="10.00">bwa_map</text>
<text text-anchor="middle" x="147" y="-298" font-family="sans" font-size="10.00">sample: B</text>
</g>
<!-- 6&#45;&gt;5 -->
<g id="edge7" class="edge">
<title>6&#45;&gt;5</title>
<path fill="none" stroke="grey" stroke-width="2" d="M147,-287.7C147,-279.98 147,-270.71 147,-262.11"/>
<polygon fill="grey" stroke="grey" stroke-width="2" points="150.5,-262.1 147,-252.1 143.5,-262.1 150.5,-262.1"/>
</g>
<!-- 7 -->
<g id="node8" class="node">
<title>7</title>
<path fill="none" stroke="#d8a456" stroke-width="2" stroke-dasharray="5,2" d="M282,-252C282,-252 220,-252 220,-252 214,-252 208,-246 208,-240 208,-240 208,-228 208,-228 208,-222 214,-216 220,-216 220,-216 282,-216 282,-216 288,-216 294,-222 294,-228 294,-228 294,-240 294,-240 294,-246 288,-252 282,-252"/>
<text text-anchor="middle" x="251" y="-231.5" font-family="sans" font-size="10.00">samtools_sort</text>
</g>
<!-- 7&#45;&gt;2 -->
<g id="edge5" class="edge">
<title>7&#45;&gt;2</title>
<path fill="none" stroke="grey" stroke-width="2" d="M225.56,-215.88C212.21,-206.89 195.68,-195.76 181.22,-186.03"/>
<polygon fill="grey" stroke="grey" stroke-width="2" points="182.79,-182.87 172.54,-180.19 178.88,-188.68 182.79,-182.87"/>
</g>
<!-- 8 -->
<g id="node9" class="node">
<title>8</title>
<path fill="none" stroke="#c6d856" stroke-width="2" stroke-dasharray="5,2" d="M271.5,-324C271.5,-324 230.5,-324 230.5,-324 224.5,-324 218.5,-318 218.5,-312 218.5,-312 218.5,-300 218.5,-300 218.5,-294 224.5,-288 230.5,-288 230.5,-288 271.5,-288 271.5,-288 277.5,-288 283.5,-294 283.5,-300 283.5,-300 283.5,-312 283.5,-312 283.5,-318 277.5,-324 271.5,-324"/>
<text text-anchor="middle" x="251" y="-309" font-family="sans" font-size="10.00">bwa_map</text>
<text text-anchor="middle" x="251" y="-298" font-family="sans" font-size="10.00">sample: C</text>
</g>
<!-- 8&#45;&gt;7 -->
<g id="edge8" class="edge">
<title>8&#45;&gt;7</title>
<path fill="none" stroke="grey" stroke-width="2" d="M251,-287.7C251,-279.98 251,-270.71 251,-262.11"/>
<polygon fill="grey" stroke="grey" stroke-width="2" points="254.5,-262.1 251,-252.1 247.5,-262.1 254.5,-262.1"/>
</g>
</g>
</svg>
